<svg viewBox="0 0 640 230" width="100%" role="img" aria-labelledby="luck-title" style="max-width:640px;height:auto;font-family:ui-sans-serif,system-ui,-apple-system,'Segoe UI',Roboto,sans-serif">
<title id="luck-title">Win rate over the next 20 games, by how far a team sat from its Pythagorean expectation</title>
<text x="0" y="16" fill="var(--fg)" font-size="13" font-weight="600">Win rate over the next 20 games</text>
<text x="0" y="34" fill="var(--muted)" font-size="11">Grouped by how far the team sat from its Pythagorean expectation at the time. 2026 season.</text>
<line x1="264.8" y1="46" x2="264.8" y2="196" stroke="var(--rule)" stroke-width="2"/>
<text x="264.8" y="212" text-anchor="middle" fill="var(--muted)" font-size="10.5">.500</text>
<text x="116" y="68.0" text-anchor="end" fill="var(--fg)" font-size="12.5" font-weight="600">Very unlucky</text>
<path d="M266.79999999999995,52H511.5999999999999A4,4 0 0 1 515.5999999999999,56V72A4,4 0 0 1 511.5999999999999,76H266.79999999999995Z" fill="var(--chart-pos)"><title>Very unlucky: 61.0% over the next 20 games (n=151 snapshots)</title></path>
<text x="523.6" y="68.0" text-anchor="start" fill="var(--muted)" font-size="12" font-variant-numeric="tabular-nums" font-weight="600">61.0%</text>
<text x="116" y="106.0" text-anchor="end" fill="var(--fg)" font-size="12.5">Unlucky</text>
<path d="M262.79999999999995,90H250.56000000000006A4,4 0 0 0 246.56000000000006,94V110A4,4 0 0 0 250.56000000000006,114H262.79999999999995Z" fill="var(--muted)" opacity="0.55"><title>Unlucky: 49.2% over the next 20 games (n=659 snapshots)</title></path>
<text x="238.6" y="106.0" text-anchor="end" fill="var(--muted)" font-size="12" font-variant-numeric="tabular-nums">49.2%</text>
<text x="116" y="144.0" text-anchor="end" fill="var(--fg)" font-size="12.5">Neutral</text>
<path d="M266.79999999999995,128H274.48A4,4 0 0 1 278.48,132V148A4,4 0 0 1 274.48,152H266.79999999999995Z" fill="var(--muted)" opacity="0.55"><title>Neutral: 50.6% over the next 20 games (n=660 snapshots)</title></path>
<text x="286.5" y="144.0" text-anchor="start" fill="var(--muted)" font-size="12" font-variant-numeric="tabular-nums">50.6%</text>
<text x="116" y="182.0" text-anchor="end" fill="var(--fg)" font-size="12.5">Lucky</text>
<path d="M262.79999999999995,166H216.36000000000007A4,4 0 0 0 212.36000000000007,170V186A4,4 0 0 0 216.36000000000007,190H262.79999999999995Z" fill="var(--muted)" opacity="0.55"><title>Lucky: 47.7% over the next 20 games (n=688 snapshots)</title></path>
<text x="204.4" y="182.0" text-anchor="end" fill="var(--muted)" font-size="12" font-variant-numeric="tabular-nums">47.7%</text>
</svg>